<svg width="23" height="23" viewBox="0 0 23 23" fill="none" xmlns="http://www.w3.org/2000/svg">
<path d="M11.2903 21.5526C12.6234 21.5543 13.9437 21.2926 15.1754 20.7824C16.407 20.2722 17.5257 19.5237 18.4671 18.5798C19.411 17.6384 20.1596 16.5197 20.6697 15.288C21.1799 14.0564 21.4417 12.7361 21.4399 11.403C21.4416 10.0698 21.1799 8.74952 20.6697 7.51789C20.1595 6.28625 19.411 5.16757 18.4671 4.22614C17.5257 3.28223 16.407 2.53368 15.1754 2.0235C13.9437 1.51332 12.6234 1.25158 11.2903 1.2533C9.95717 1.2516 8.63685 1.51336 7.40522 2.02354C6.17358 2.53372 5.0549 3.28226 4.11347 4.22614C3.16959 5.16757 2.42105 6.28625 1.91087 7.51789C1.40069 8.74952 1.13893 10.0698 1.14063 11.403C1.13891 12.7361 1.40065 14.0564 1.91083 15.288C2.42101 16.5197 3.16956 17.6384 4.11347 18.5798C5.0549 19.5237 6.17358 20.2722 7.40522 20.7824C8.63685 21.2925 9.95717 21.5543 11.2903 21.5526Z" stroke="#F6F6F6" stroke-width="1.68" stroke-linejoin="round"/>
<path d="M11.2903 14.3029V12.1279C11.8638 12.1279 12.4245 11.9366 12.9014 11.5781C13.3783 11.2196 13.75 10.7101 13.9694 10.114C14.1889 9.51788 14.2464 8.86192 14.1345 8.22908C14.0226 7.59624 13.7464 7.01494 13.3408 6.55868C12.9353 6.10243 12.4186 5.79172 11.856 5.66584C11.2935 5.53996 10.7104 5.60456 10.1805 5.85149C9.65065 6.09841 9.19775 6.51656 8.8791 7.05305C8.56046 7.58955 8.39038 8.2203 8.39038 8.86554" stroke="#F6F6F6" stroke-width="1.68" stroke-linecap="round" stroke-linejoin="round"/>
<path fill-rule="evenodd" clip-rule="evenodd" d="M11.2903 18.6527C11.6748 18.6527 12.0436 18.4999 12.3156 18.228C12.5875 17.9561 12.7402 17.5873 12.7402 17.2028C12.7402 16.8182 12.5875 16.4494 12.3156 16.1775C12.0436 15.9056 11.6748 15.7528 11.2903 15.7528C10.9057 15.7528 10.5369 15.9056 10.265 16.1775C9.99309 16.4494 9.84033 16.8182 9.84033 17.2028C9.84033 17.5873 9.99309 17.9561 10.265 18.228C10.5369 18.4999 10.9057 18.6527 11.2903 18.6527Z" fill="#F6F6F6"/>
</svg>
