<svg width="26" height="26" viewBox="0 0 26 26" fill="none" xmlns="http://www.w3.org/2000/svg">
<path d="M12.9318 24.8636C16.0963 24.8636 19.1312 23.6065 21.3689 21.3689C23.6065 19.1312 24.8636 16.0963 24.8636 12.9318M12.9318 24.8636C9.7673 24.8636 6.7324 23.6065 4.49475 21.3689C2.2571 19.1312 1 16.0963 1 12.9318M12.9318 24.8636C15.6884 21.4738 17.2956 17.2952 17.521 12.9318C17.2956 8.56846 15.6884 4.38983 12.9318 1M12.9318 24.8636C10.1752 21.4738 8.56808 17.2952 8.34266 12.9318C8.56808 8.56846 10.1752 4.38983 12.9318 1M24.8636 12.9318C24.8636 9.7673 23.6065 6.7324 21.3689 4.49475C19.1312 2.2571 16.0963 1 12.9318 1M24.8636 12.9318H1M12.9318 1C9.7673 1 6.7324 2.2571 4.49475 4.49475C2.2571 6.7324 1 9.7673 1 12.9318" stroke="#4B5F9E" stroke-width="2" stroke-linecap="round" stroke-linejoin="round"/>
</svg>
