<svg width="17" height="22" viewBox="0 0 17 22" fill="none" xmlns="http://www.w3.org/2000/svg">
<path d="M2.1 21.7C1.5225 21.7 1.0283 21.4978 0.6174 21.0934C0.2065 20.6891 0.0007 20.2024 0 19.6333V9.3C0 8.73167 0.2058 8.24531 0.6174 7.84093C1.029 7.43656 1.5232 7.23402 2.1 7.23333H3.15V5.16667C3.15 3.73722 3.66205 2.51892 4.68615 1.51177C5.71025 0.504611 6.9482 0.000688889 8.4 0C9.8525 0 11.0908 0.503922 12.1149 1.51177C13.139 2.51961 13.6507 3.73791 13.65 5.16667V7.23333H14.7C15.2775 7.23333 15.772 7.43587 16.1836 7.84093C16.5952 8.246 16.8007 8.73236 16.8 9.3V19.6333C16.8 20.2017 16.5945 20.6884 16.1836 21.0934C15.7727 21.4985 15.2782 21.7007 14.7 21.7H2.1ZM2.1 19.6333H14.7V9.3H2.1V19.6333ZM8.4 16.5333C8.9775 16.5333 9.47205 16.3311 9.88365 15.9268C10.2952 15.5224 10.5007 15.0357 10.5 14.4667C10.5 13.8983 10.2945 13.412 9.88365 13.0076C9.47275 12.6032 8.9782 12.4007 8.4 12.4C7.8225 12.4 7.3283 12.6025 6.9174 13.0076C6.5065 13.4127 6.3007 13.899 6.3 14.4667C6.3 15.035 6.5058 15.5217 6.9174 15.9268C7.329 16.3318 7.8232 16.534 8.4 16.5333ZM5.25 7.23333H11.55V5.16667C11.55 4.30556 11.2437 3.57361 10.6312 2.97083C10.0187 2.36806 9.275 2.06667 8.4 2.06667C7.525 2.06667 6.78125 2.36806 6.16875 2.97083C5.55625 3.57361 5.25 4.30556 5.25 5.16667V7.23333Z" fill="#F6F6F6"/>
</svg>
