<svg width="25" height="24" viewBox="0 0 25 24" fill="none" xmlns="http://www.w3.org/2000/svg">
<path d="M12.3778 15.0937C14.0703 15.0937 15.4424 13.7659 15.4424 12.1279C15.4424 10.49 14.0703 9.16212 12.3778 9.16212C10.6852 9.16212 9.31308 10.49 9.31308 12.1279C9.31308 13.7659 10.6852 15.0937 12.3778 15.0937Z" stroke="#F6F6F6" stroke-width="1.68" stroke-linecap="round" stroke-linejoin="round"/>
<path d="M19.9373 15.0937C19.8013 15.3919 19.7607 15.7227 19.8208 16.0434C19.8809 16.3641 20.0389 16.66 20.2744 16.893L20.3357 16.9523C20.5256 17.1359 20.6763 17.354 20.7792 17.594C20.882 17.8341 20.9349 18.0914 20.9349 18.3512C20.9349 18.611 20.882 18.8683 20.7792 19.1083C20.6763 19.3484 20.5256 19.5664 20.3357 19.7501C20.1459 19.9339 19.9206 20.0797 19.6726 20.1792C19.4245 20.2787 19.1587 20.33 18.8902 20.33C18.6217 20.33 18.3558 20.2787 18.1078 20.1792C17.8598 20.0797 17.6344 19.9339 17.4447 19.7501L17.3834 19.6908C17.1426 19.4628 16.8368 19.31 16.5054 19.2518C16.1741 19.1937 15.8323 19.2329 15.5241 19.3645C15.222 19.4898 14.9643 19.6979 14.7828 19.9631C14.6013 20.2284 14.5039 20.5392 14.5026 20.8573V21.0254C14.5026 21.5498 14.2873 22.0527 13.9042 22.4235C13.521 22.7943 13.0013 23.0026 12.4595 23.0026C11.9176 23.0026 11.3979 22.7943 11.0148 22.4235C10.6316 22.0527 10.4164 21.5498 10.4164 21.0254V20.9364C10.4085 20.6092 10.299 20.2918 10.1022 20.0256C9.90548 19.7594 9.63051 19.5566 9.31308 19.4436C9.00496 19.312 8.66317 19.2727 8.33179 19.3309C8.0004 19.389 7.69461 19.5419 7.45385 19.7698L7.39255 19.8292C7.2028 20.013 6.97747 20.1588 6.72944 20.2583C6.48141 20.3578 6.21555 20.409 5.94705 20.409C5.67855 20.409 5.41269 20.3578 5.16466 20.2583C4.91663 20.1588 4.6913 20.013 4.50155 19.8292C4.31159 19.6455 4.16089 19.4275 4.05807 19.1874C3.95525 18.9474 3.90233 18.6901 3.90233 18.4303C3.90233 18.1704 3.95525 17.9132 4.05807 17.6731C4.16089 17.4331 4.31159 17.215 4.50155 17.0314L4.56284 16.9721C4.79835 16.7391 4.95633 16.4432 5.01642 16.1225C5.0765 15.8018 5.03594 15.471 4.89995 15.1728C4.77046 14.8804 4.55544 14.6311 4.28137 14.4554C4.00729 14.2798 3.68613 14.1855 3.3574 14.1842H3.18374C2.64187 14.1842 2.1222 13.9759 1.73904 13.6051C1.35588 13.2343 1.14063 12.7314 1.14062 12.207C1.14062 11.6826 1.35588 11.1797 1.73904 10.8089C2.1222 10.4381 2.64187 10.2298 3.18374 10.2298H3.27568C3.61381 10.2222 3.94174 10.1162 4.21684 9.92583C4.49194 9.73542 4.70148 9.46932 4.81823 9.16212C4.95421 8.86395 4.99478 8.53318 4.93469 8.21248C4.87461 7.89178 4.71662 7.59586 4.48112 7.36287L4.41982 7.30355C4.22986 7.11992 4.07916 6.90186 3.97635 6.66183C3.87353 6.4218 3.8206 6.16451 3.8206 5.90468C3.8206 5.64484 3.87353 5.38755 3.97635 5.14752C4.07916 4.90749 4.22986 4.68943 4.41982 4.5058C4.60957 4.32197 4.83491 4.17613 5.08294 4.07663C5.33097 3.97713 5.59683 3.92591 5.86533 3.92591C6.13382 3.92591 6.39969 3.97713 6.64772 4.07663C6.89575 4.17613 7.12108 4.32197 7.31083 4.5058L7.37212 4.56512C7.61288 4.79303 7.91867 4.94591 8.25006 5.00406C8.58145 5.06221 8.92324 5.02295 9.23136 4.89136H9.31308C9.61523 4.76604 9.87291 4.55796 10.0544 4.29272C10.2359 4.02749 10.3333 3.71668 10.3346 3.39857V3.2305C10.3346 2.70611 10.5499 2.2032 10.9331 1.83241C11.3162 1.46161 11.8359 1.2533 12.3778 1.2533C12.9196 1.2533 13.4393 1.46161 13.8225 1.83241C14.2056 2.2032 14.4209 2.70611 14.4209 3.2305V3.31948C14.4222 3.6376 14.5196 3.9484 14.7011 4.21363C14.8826 4.47887 15.1403 4.68695 15.4424 4.81227C15.7505 4.94387 16.0923 4.98312 16.4237 4.92497C16.7551 4.86683 17.0609 4.71394 17.3017 4.48603L17.3629 4.42671C17.5527 4.24288 17.778 4.09704 18.0261 3.99754C18.2741 3.89804 18.54 3.84682 18.8085 3.84682C19.077 3.84682 19.3428 3.89804 19.5908 3.99754C19.8389 4.09704 20.0642 4.24288 20.254 4.42671C20.4439 4.61034 20.5946 4.82841 20.6974 5.06843C20.8003 5.30846 20.8532 5.56575 20.8532 5.82559C20.8532 6.08542 20.8003 6.34271 20.6974 6.58274C20.5946 6.82277 20.4439 7.04083 20.254 7.22446L20.1927 7.28378C19.9572 7.51677 19.7992 7.8127 19.7391 8.13339C19.679 8.45409 19.7196 8.78486 19.8555 9.08304V9.16212C19.985 9.45452 20.2001 9.7039 20.4741 9.87955C20.7482 10.0552 21.0694 10.1495 21.3981 10.1507H21.5718C22.1136 10.1507 22.6333 10.359 23.0165 10.7298C23.3996 11.1006 23.6149 11.6035 23.6149 12.1279C23.6149 12.6523 23.3996 13.1552 23.0165 13.526C22.6333 13.8968 22.1136 14.1051 21.5718 14.1051H21.4798C21.1511 14.1064 20.8299 14.2007 20.5559 14.3763C20.2818 14.552 20.0668 14.8013 19.9373 15.0937Z" stroke="#F6F6F6" stroke-width="1.68" stroke-linecap="round" stroke-linejoin="round"/>
</svg>
