<svg width="23" height="24" viewBox="0 0 23 24" fill="none" xmlns="http://www.w3.org/2000/svg">
<path d="M1.92383 5.46555H4.10704M4.10704 5.46555H21.5728M4.10704 5.46555V20.7481C4.10704 21.3271 4.33706 21.8824 4.74649 22.2918C5.15593 22.7013 5.71124 22.9313 6.29026 22.9313H17.2063C17.7854 22.9313 18.3407 22.7013 18.7501 22.2918C19.1595 21.8824 19.3896 21.3271 19.3896 20.7481V5.46555M7.38187 5.46555V3.28234C7.38187 2.70331 7.61189 2.148 8.02132 1.73857C8.43075 1.32914 8.98606 1.09912 9.56509 1.09912H13.9315C14.5105 1.09912 15.0659 1.32914 15.4753 1.73857C15.8847 2.148 16.1147 2.70331 16.1147 3.28234V5.46555M9.56509 10.9236V17.4732M13.9315 10.9236V17.4732" stroke="white" stroke-width="2" stroke-linecap="round" stroke-linejoin="round"/>
</svg>
