<svg width="19" height="26" viewBox="0 0 19 26" fill="none" xmlns="http://www.w3.org/2000/svg">
<path d="M4.75477 20.4286H14.2454V22.2857H4.75477V20.4286ZM6.6529 24.1429H12.3473V26H6.6529V24.1429ZM9.5001 0C6.98302 0 4.56903 0.978313 2.78918 2.71972C1.00934 4.46113 0.00942788 6.82299 0.00942788 9.28571C-0.0547535 10.6352 0.209467 11.9804 0.780351 13.2105C1.35124 14.4406 2.21247 15.5205 3.2932 16.3614C4.24227 17.225 4.75477 17.7171 4.75477 18.5714H6.6529C6.6529 16.8629 5.59944 15.9064 4.57444 14.9871C3.68741 14.3225 2.98046 13.4553 2.51552 12.4613C2.05058 11.4673 1.84183 10.3769 1.90756 9.28571C1.90756 7.31553 2.70749 5.42605 4.13137 4.03292C5.55524 2.63979 7.48644 1.85714 9.5001 1.85714C11.5138 1.85714 13.445 2.63979 14.8688 4.03292C16.2927 5.42605 17.0926 7.31553 17.0926 9.28571C17.1573 10.3778 16.9471 11.4686 16.4805 12.4627C16.0138 13.4567 15.3051 14.3235 14.4163 14.9871C13.4008 15.9157 12.3473 16.8443 12.3473 18.5714H14.2454C14.2454 17.7171 14.7484 17.225 15.707 16.3521C16.787 15.5127 17.6478 14.4344 18.2187 13.2059C18.7896 11.9774 19.0542 10.6338 18.9908 9.28571C18.9908 8.0663 18.7453 6.85882 18.2683 5.73222C17.7914 4.60563 17.0923 3.58198 16.211 2.71972C15.3297 1.85746 14.2835 1.17348 13.132 0.706833C11.9806 0.240182 10.7464 0 9.5001 0Z" fill="white"/>
</svg>
