<svg width="23" height="23" viewBox="0 0 23 23" fill="none" xmlns="http://www.w3.org/2000/svg">
<path d="M16.0899 6.00806V3.47064C16.0899 2.79768 15.8121 2.15228 15.3177 1.67642C14.8233 1.20056 14.1528 0.933228 13.4536 0.933228H4.22661C3.52742 0.933228 2.85688 1.20056 2.36248 1.67642C1.86808 2.15228 1.59033 2.79768 1.59033 3.47064V18.6951C1.59033 19.3681 1.86808 20.0135 2.36248 20.4894C2.85688 20.9652 3.52742 21.2326 4.22661 21.2326H13.4536C14.1528 21.2326 14.8233 20.9652 15.3177 20.4894C15.8121 20.0135 16.0899 19.3681 16.0899 18.6951V16.1577" stroke="#F6F6F6" stroke-width="1.68" stroke-linecap="round" stroke-linejoin="round"/>
<path d="M11.0151 11.0829H21.8898M21.8898 11.0829L19.1711 7.45801M21.8898 11.0829L19.1711 14.7078" stroke="#F6F6F6" stroke-width="1.68" stroke-linecap="round" stroke-linejoin="round"/>
</svg>
