<svg width="23" height="24" viewBox="0 0 23 24" fill="none" xmlns="http://www.w3.org/2000/svg">
<path d="M14.9229 21.25C14.9231 21.8807 14.6849 22.4882 14.256 22.9507C13.8272 23.4132 13.2393 23.6964 12.6104 23.7438L12.4229 23.75H9.92291C9.29219 23.7502 8.6847 23.512 8.22222 23.0831C7.75974 22.6543 7.47646 22.0664 7.42916 21.4375L7.42291 21.25H14.9229ZM11.1729 1.19258e-09C13.4416 -3.74313e-05 15.6217 0.881117 17.2532 2.45759C18.8847 4.03407 19.8401 6.18261 19.9179 8.45L19.9229 8.75V13.455L22.2004 18.01C22.2998 18.2088 22.3495 18.4286 22.3454 18.6508C22.3412 18.873 22.2833 19.0908 22.1765 19.2857C22.0697 19.4806 21.9173 19.6467 21.7323 19.7698C21.5472 19.8929 21.3352 19.9693 21.1142 19.9925L20.9704 20H1.37541C1.15311 20.0001 0.934115 19.9462 0.737182 19.8431C0.54025 19.74 0.371255 19.5907 0.244678 19.4079C0.1181 19.2252 0.0377156 19.0145 0.0104117 18.7939C-0.0168922 18.5733 0.00969897 18.3493 0.0879064 18.1413L0.145406 18.01L2.42291 13.455V8.75C2.42291 6.42936 3.34478 4.20376 4.98572 2.56282C6.62667 0.921872 8.85226 1.19259e-09 11.1729 1.19258e-09Z" fill="#2B438D" fill-opacity="0.85"/>
</svg>
