<svg width="18" height="18" viewBox="0 0 18 18" fill="none" xmlns="http://www.w3.org/2000/svg">
<path d="M9 18C8.60166 18 8.25311 17.8634 7.95436 17.5901C7.6805 17.2919 7.54357 16.9441 7.54357 16.5466V10.4348H1.41909C1.02075 10.4348 0.684647 10.2981 0.410788 10.0248C0.136929 9.75155 0 9.41615 0 9.01863C0 8.59627 0.136929 8.24845 0.410788 7.97515C0.684647 7.70186 1.02075 7.56522 1.41909 7.56522H7.54357V1.45342C7.54357 1.03106 7.6805 0.68323 7.95436 0.409937C8.25311 0.136646 8.60166 0 9 0C9.42324 0 9.77178 0.136646 10.0456 0.409937C10.3195 0.68323 10.4564 1.03106 10.4564 1.45342V7.56522H16.5436C16.9668 7.56522 17.3154 7.70186 17.5892 7.97515C17.8631 8.24845 18 8.59627 18 9.01863C18 9.41615 17.8631 9.75155 17.5892 10.0248C17.3154 10.2981 16.9668 10.4348 16.5436 10.4348H10.4564V16.5466C10.4564 16.9441 10.3195 17.2919 10.0456 17.5901C9.77178 17.8634 9.42324 18 9 18Z" fill="#3261F0"/>
</svg>
