<svg width="13" height="13" viewBox="0 0 13 13" fill="none" xmlns="http://www.w3.org/2000/svg">
<path d="M13 6.5C13 6.70687 12.9178 6.90526 12.7715 7.05154C12.6253 7.19782 12.4269 7.28 12.22 7.28H7.28V12.22C7.28 12.4269 7.19782 12.6253 7.05154 12.7715C6.90526 12.9178 6.70687 13 6.5 13C6.29313 13 6.09473 12.9178 5.94846 12.7715C5.80218 12.6253 5.72 12.4269 5.72 12.22V7.28H0.78C0.573131 7.28 0.374735 7.19782 0.228457 7.05154C0.0821784 6.90526 0 6.70687 0 6.5C0 6.29313 0.0821784 6.09473 0.228457 5.94846C0.374735 5.80218 0.573131 5.72 0.78 5.72H5.72V0.78C5.72 0.573131 5.80218 0.374735 5.94846 0.228457C6.09473 0.0821784 6.29313 0 6.5 0C6.70687 0 6.90526 0.0821784 7.05154 0.228457C7.19782 0.374735 7.28 0.573131 7.28 0.78V5.72H12.22C12.4269 5.72 12.6253 5.80218 12.7715 5.94846C12.9178 6.09473 13 6.29313 13 6.5Z" fill="white"/>
</svg>
