<svg width="56" height="12" viewBox="0 0 56 12" fill="none" xmlns="http://www.w3.org/2000/svg">
<path d="M24.4608 2.84001C23.9117 2.84001 23.4845 3.33001 23.4845 3.96001C23.4845 4.59001 23.9117 5.08001 24.4608 5.08001H28.3659C30.1083 5.08001 31.2948 6.64334 31.2948 8.56445C31.2202 10.3922 29.9456 11.8 28.3659 11.8H21.532V10.6722C21.5523 10.05 21.9591 9.58334 22.5015 9.56001H28.3659C28.9151 9.56001 29.3422 9.07001 29.3422 8.44001C29.3422 7.81001 28.9151 7.32001 28.3659 7.32001H24.4608C22.854 7.32001 21.532 5.82667 21.532 3.96001C21.532 2.10889 22.8337 0.600006 24.4608 0.600006H32.9355V2.84001H24.4608Z" fill="white"/>
<path d="M34.888 11.8H32.9355V0.600006H34.888V11.8Z" fill="white"/>
<path d="M39.9864 2.84001C39.4372 2.84001 39.0101 3.33001 39.0101 3.96001C39.0101 4.59001 39.4372 5.08001 39.9864 5.08001H43.8915C45.6339 5.08001 46.8203 6.64334 46.8203 8.56445C46.7457 10.3922 45.4712 11.8 43.8915 11.8H34.888V10.6722V9.56001H43.8915C44.4406 9.56001 44.8678 9.07001 44.8678 8.44001C44.8678 7.81001 44.4406 7.32001 43.8915 7.32001H39.9864C38.3796 7.32001 37.0575 5.82667 37.0575 3.96001C37.0575 2.10889 38.3592 0.600006 39.9864 0.600006H43.8915V2.84001H39.9864Z" fill="white"/>
<path d="M50.3187 0.600006V2.84001H43.8915V0.600006H50.3187ZM49.3424 1.72001C49.3424 1.09001 49.7695 0.600006 50.3187 0.600006H55.2001V2.84001H51.2949V11.8H49.3424V1.72001Z" fill="white"/>
<path d="M0.98665 5.08001H4.93325C5.48824 5.08001 5.9199 4.59001 5.9199 3.96001C5.9199 3.33001 5.48824 2.84001 4.93325 2.84001H0V0.600006C1.65127 0.607784 3.29568 0.607784 4.94695 0.600006C6.57081 0.638895 7.8932 2.07001 7.8932 3.96001C7.8932 4.88556 7.58487 5.69445 6.97506 6.39445C7.61228 8.19112 8.24263 9.99556 8.87985 11.8H6.61877C6.09119 10.3067 5.57046 8.81334 5.04288 7.32001H1.9733V11.8H0V6.18445C0.0137035 5.56223 0.431659 5.08001 0.98665 5.08001Z" fill="#E75F42"/>
<path d="M10.0995 2.84001V0.600006H17.006V2.84001H10.0995ZM11.0724 5.08001H17.9927V7.32001H12.0728V9.56001H19.966V11.8H10.0995V6.18445C10.12 5.56223 10.5243 5.10334 11.0724 5.08001Z" fill="#E75F42"/>
</svg>
