<svg width="23" height="23" viewBox="0 0 23 23" fill="none" xmlns="http://www.w3.org/2000/svg">
<path d="M1 19.375H0.16H1ZM6.25 14.125V13.285V14.125ZM16.75 14.125V13.285V14.125ZM1.84 19.375C1.84 18.2054 2.30462 17.0837 3.13166 16.2567L1.94372 15.0687C0.801623 16.2108 0.16 17.7598 0.16 19.375H1.84ZM3.13166 16.2567C3.95869 15.4296 5.0804 14.965 6.25 14.965V13.285C4.63483 13.285 3.08582 13.9266 1.94372 15.0687L3.13166 16.2567ZM6.25 14.965H16.75V13.285H6.25V14.965ZM16.75 14.965C17.9196 14.965 19.0413 15.4296 19.8683 16.2567L21.0563 15.0687C19.9142 13.9266 18.3652 13.285 16.75 13.285V14.965ZM19.8683 16.2567C20.6954 17.0837 21.16 18.2054 21.16 19.375H22.84C22.84 17.7598 22.1984 16.2108 21.0563 15.0687L19.8683 16.2567ZM21.16 19.375C21.16 19.8484 20.9719 20.3024 20.6372 20.6372L21.8251 21.8251C22.4749 21.1753 22.84 20.294 22.84 19.375H21.16ZM20.6372 20.6372C20.3024 20.9719 19.8484 21.16 19.375 21.16V22.84C20.294 22.84 21.1753 22.4749 21.8251 21.8251L20.6372 20.6372ZM19.375 21.16H3.625V22.84H19.375V21.16ZM3.625 21.16C3.15159 21.16 2.69757 20.9719 2.36281 20.6372L1.17487 21.8251C1.82469 22.4749 2.70602 22.84 3.625 22.84V21.16ZM2.36281 20.6372C2.02806 20.3024 1.84 19.8484 1.84 19.375H0.16C0.16 20.294 0.525061 21.1753 1.17487 21.8251L2.36281 20.6372ZM14.5975 4.9375C14.5975 6.6482 13.2107 8.035 11.5 8.035V9.715C14.1385 9.715 16.2775 7.57604 16.2775 4.9375H14.5975ZM11.5 8.035C9.7893 8.035 8.4025 6.6482 8.4025 4.9375H6.7225C6.7225 7.57604 8.86146 9.715 11.5 9.715V8.035ZM8.4025 4.9375C8.4025 3.2268 9.7893 1.84 11.5 1.84V0.16C8.86146 0.16 6.7225 2.29896 6.7225 4.9375H8.4025ZM11.5 1.84C13.2107 1.84 14.5975 3.2268 14.5975 4.9375H16.2775C16.2775 2.29896 14.1385 0.16 11.5 0.16V1.84Z" fill="#F6F6F6"/>
</svg>
